<mxfile host="app.diagrams.net" agent="Mozilla/5.0 (Windows NT 10.0; Win64; x64) AppleWebKit/537.36 (KHTML, like Gecko) Chrome/133.0.0.0 Safari/537.36" version="26.0.11">
  <diagram name="Page-1" id="rlWZSoEnn8VyQrNRhwI-">
    <mxGraphModel dx="1461" dy="641" grid="1" gridSize="10" guides="1" tooltips="1" connect="1" arrows="1" fold="1" page="1" pageScale="1" pageWidth="827" pageHeight="1169" math="0" shadow="0">
      <root>
        <mxCell id="0" />
        <mxCell id="1" parent="0" />
        <mxCell id="DBOQzst0lkLzwR38wI09-1" value="&lt;b&gt;&lt;font style=&quot;font-size: 14px;&quot;&gt;Lambda Deployment&lt;/font&gt;&lt;/b&gt;" style="rounded=1;whiteSpace=wrap;html=1;fillColor=light-dark(#DCFFE8,var(--ge-dark-color, #121212));" vertex="1" parent="1">
          <mxGeometry x="330" y="40" width="180" height="60" as="geometry" />
        </mxCell>
        <mxCell id="DBOQzst0lkLzwR38wI09-3" value="&lt;b&gt;&lt;font style=&quot;font-size: 14px;&quot;&gt;APP&lt;/font&gt;&lt;/b&gt;" style="rounded=1;whiteSpace=wrap;html=1;fillColor=light-dark(#FFFFCC,var(--ge-dark-color, #121212));" vertex="1" parent="1">
          <mxGeometry x="110" y="200" width="120" height="60" as="geometry" />
        </mxCell>
        <mxCell id="DBOQzst0lkLzwR38wI09-4" value="&lt;b&gt;&lt;font style=&quot;font-size: 14px;&quot;&gt;Infra&lt;/font&gt;&lt;/b&gt;" style="rounded=1;whiteSpace=wrap;html=1;fillColor=light-dark(#D5E8D4,var(--ge-dark-color, #121212));" vertex="1" parent="1">
          <mxGeometry x="640" y="200" width="120" height="60" as="geometry" />
        </mxCell>
        <mxCell id="DBOQzst0lkLzwR38wI09-5" value="&lt;b&gt;&lt;font style=&quot;font-size: 14px;&quot;&gt;Hello World Service&lt;/font&gt;&lt;/b&gt;" style="rounded=1;whiteSpace=wrap;html=1;fillColor=light-dark(#CCCCFF,var(--ge-dark-color, #121212));" vertex="1" parent="1">
          <mxGeometry x="110" y="360" width="120" height="60" as="geometry" />
        </mxCell>
        <mxCell id="DBOQzst0lkLzwR38wI09-6" value="&lt;b&gt;&lt;font style=&quot;font-size: 14px;&quot;&gt;ECR&lt;/font&gt;&lt;/b&gt;" style="rounded=1;whiteSpace=wrap;html=1;fillColor=light-dark(#FFCCFF,var(--ge-dark-color, #121212));" vertex="1" parent="1">
          <mxGeometry x="450" y="360" width="70" height="60" as="geometry" />
        </mxCell>
        <mxCell id="DBOQzst0lkLzwR38wI09-7" value="&lt;b&gt;&lt;font style=&quot;font-size: 14px;&quot;&gt;IAM&lt;/font&gt;&lt;/b&gt;" style="rounded=1;whiteSpace=wrap;html=1;fillColor=light-dark(#99FFFF,var(--ge-dark-color, #121212));" vertex="1" parent="1">
          <mxGeometry x="540" y="360" width="70" height="60" as="geometry" />
        </mxCell>
        <mxCell id="DBOQzst0lkLzwR38wI09-8" value="&lt;b&gt;&lt;font style=&quot;font-size: 14px;&quot;&gt;Lambda&lt;/font&gt;&lt;/b&gt;" style="rounded=1;whiteSpace=wrap;html=1;fillColor=light-dark(#F8CECC,var(--ge-dark-color, #121212));" vertex="1" parent="1">
          <mxGeometry x="630" y="360" width="80" height="60" as="geometry" />
        </mxCell>
        <mxCell id="DBOQzst0lkLzwR38wI09-9" value="&lt;b&gt;&lt;font style=&quot;font-size: 14px;&quot;&gt;Cloud Watch&lt;/font&gt;&lt;/b&gt;" style="rounded=1;whiteSpace=wrap;html=1;fillColor=light-dark(#D4E1F5,var(--ge-dark-color, #121212));" vertex="1" parent="1">
          <mxGeometry x="730" y="360" width="90" height="60" as="geometry" />
        </mxCell>
        <mxCell id="DBOQzst0lkLzwR38wI09-10" value="" style="endArrow=none;html=1;rounded=0;entryX=0;entryY=0.75;entryDx=0;entryDy=0;" edge="1" parent="1" target="DBOQzst0lkLzwR38wI09-1">
          <mxGeometry width="50" height="50" relative="1" as="geometry">
            <mxPoint x="200" y="200" as="sourcePoint" />
            <mxPoint x="250" y="150" as="targetPoint" />
          </mxGeometry>
        </mxCell>
        <mxCell id="DBOQzst0lkLzwR38wI09-11" value="" style="endArrow=none;html=1;rounded=0;entryX=1;entryY=0.5;entryDx=0;entryDy=0;" edge="1" parent="1" target="DBOQzst0lkLzwR38wI09-1">
          <mxGeometry width="50" height="50" relative="1" as="geometry">
            <mxPoint x="660" y="200" as="sourcePoint" />
            <mxPoint x="710" y="150" as="targetPoint" />
          </mxGeometry>
        </mxCell>
        <mxCell id="DBOQzst0lkLzwR38wI09-12" value="" style="endArrow=none;html=1;rounded=0;entryX=0.5;entryY=1;entryDx=0;entryDy=0;" edge="1" parent="1" target="DBOQzst0lkLzwR38wI09-3">
          <mxGeometry width="50" height="50" relative="1" as="geometry">
            <mxPoint x="160" y="360" as="sourcePoint" />
            <mxPoint x="210" y="310" as="targetPoint" />
          </mxGeometry>
        </mxCell>
        <mxCell id="DBOQzst0lkLzwR38wI09-13" value="" style="endArrow=none;html=1;rounded=0;entryX=-0.016;entryY=0.633;entryDx=0;entryDy=0;entryPerimeter=0;" edge="1" parent="1" target="DBOQzst0lkLzwR38wI09-4">
          <mxGeometry width="50" height="50" relative="1" as="geometry">
            <mxPoint x="480" y="360" as="sourcePoint" />
            <mxPoint x="530" y="310" as="targetPoint" />
          </mxGeometry>
        </mxCell>
        <mxCell id="DBOQzst0lkLzwR38wI09-14" value="" style="endArrow=none;html=1;rounded=0;entryX=0.073;entryY=1.033;entryDx=0;entryDy=0;entryPerimeter=0;" edge="1" parent="1" target="DBOQzst0lkLzwR38wI09-4">
          <mxGeometry width="50" height="50" relative="1" as="geometry">
            <mxPoint x="560" y="360" as="sourcePoint" />
            <mxPoint x="610" y="310" as="targetPoint" />
          </mxGeometry>
        </mxCell>
        <mxCell id="DBOQzst0lkLzwR38wI09-15" value="" style="endArrow=none;html=1;rounded=0;entryX=0.5;entryY=1;entryDx=0;entryDy=0;" edge="1" parent="1" target="DBOQzst0lkLzwR38wI09-4">
          <mxGeometry width="50" height="50" relative="1" as="geometry">
            <mxPoint x="640" y="360" as="sourcePoint" />
            <mxPoint x="690" y="310" as="targetPoint" />
          </mxGeometry>
        </mxCell>
        <mxCell id="DBOQzst0lkLzwR38wI09-16" value="" style="endArrow=none;html=1;rounded=0;entryX=0.651;entryY=1.033;entryDx=0;entryDy=0;entryPerimeter=0;" edge="1" parent="1" target="DBOQzst0lkLzwR38wI09-4">
          <mxGeometry width="50" height="50" relative="1" as="geometry">
            <mxPoint x="750" y="360" as="sourcePoint" />
            <mxPoint x="800" y="310" as="targetPoint" />
          </mxGeometry>
        </mxCell>
      </root>
    </mxGraphModel>
  </diagram>
</mxfile>
